<?xml version="1.0" encoding="utf-8"?>
<!-- Generator: Adobe Illustrator 16.0.0, SVG Export Plug-In . SVG Version: 6.00 Build 0)  -->
<!DOCTYPE svg PUBLIC "-//W3C//DTD SVG 1.1//EN" "http://www.w3.org/Graphics/SVG/1.1/DTD/svg11.dtd">
<svg version="1.1" id="artwork" xmlns="http://www.w3.org/2000/svg" xmlns:xlink="http://www.w3.org/1999/xlink" x="0px" y="0px"
	 width="135px" height="40px" viewBox="0 0 135 40" enable-background="new 0 0 135 40" xml:space="preserve">
<g>
	<g>
		<path d="M130,40H5C2.25,40,0,37.75,0,35V5c0-2.75,2.25-5,5-5h125c2.75,0,5,2.25,5,5v30C135,37.75,132.75,40,130,40z"/>
	</g>
	<g>
		<g>
			<path fill="#A6A6A6" d="M130,0.8c2.316,0,4.2,1.884,4.2,4.2v30c0,2.315-1.884,4.2-4.2,4.2H5c-2.316,0-4.2-1.885-4.2-4.2V5
				c0-2.316,1.884-4.2,4.2-4.2H130 M130,0H5C2.25,0,0,2.25,0,5v30C0,37.75,2.25,40,5,40h125c2.75,0,5-2.25,5-4.999V5
				C135,2.25,132.75,0,130,0L130,0z"/>
		</g>
	</g>
	<g>
		<path fill="#FFFFFF" stroke="#FFFFFF" stroke-width="0.2" stroke-miterlimit="10" d="M47.419,10.243
			c0,0.838-0.248,1.505-0.746,2.003c-0.564,0.592-1.299,0.888-2.203,0.888c-0.867,0-1.604-0.3-2.209-0.9
			c-0.606-0.601-0.908-1.345-0.908-2.233c0-0.889,0.302-1.633,0.908-2.233c0.605-0.601,1.342-0.901,2.209-0.901
			c0.43,0,0.84,0.084,1.23,0.251c0.391,0.168,0.705,0.391,0.939,0.67l-0.527,0.528c-0.398-0.475-0.945-0.712-1.643-0.712
			c-0.633,0-1.178,0.222-1.639,0.666S42.14,9.291,42.14,10s0.23,1.286,0.691,1.73s1.006,0.666,1.639,0.666
			c0.67,0,1.229-0.223,1.676-0.67c0.289-0.291,0.457-0.696,0.502-1.215H44.47V9.791h2.906C47.405,9.947,47.419,10.098,47.419,10.243
			z"/>
		<path fill="#FFFFFF" stroke="#FFFFFF" stroke-width="0.2" stroke-miterlimit="10" d="M52.027,7.737h-2.731V9.64h2.463v0.721
			h-2.463v1.902h2.731V13h-3.503V7h3.503V7.737z"/>
		<path fill="#FFFFFF" stroke="#FFFFFF" stroke-width="0.2" stroke-miterlimit="10" d="M55.278,13h-0.771V7.737h-1.676V7h4.122
			v0.737h-1.676V13z"/>
		<path fill="#FFFFFF" stroke="#FFFFFF" stroke-width="0.2" stroke-miterlimit="10" d="M59.938,13V7h0.77v6H59.938z"/>
		<path fill="#FFFFFF" stroke="#FFFFFF" stroke-width="0.2" stroke-miterlimit="10" d="M64.129,13h-0.771V7.737h-1.677V7h4.124
			v0.737h-1.676V13z"/>
		<path fill="#FFFFFF" stroke="#FFFFFF" stroke-width="0.2" stroke-miterlimit="10" d="M73.609,12.225
			c-0.59,0.606-1.323,0.909-2.2,0.909s-1.61-0.303-2.199-0.909c-0.59-0.606-0.884-1.348-0.884-2.225s0.294-1.619,0.884-2.225
			c0.589-0.606,1.322-0.91,2.199-0.91c0.872,0,1.604,0.305,2.196,0.914c0.592,0.609,0.888,1.349,0.888,2.221
			C74.493,10.877,74.198,11.619,73.609,12.225z M69.779,11.722c0.444,0.45,0.987,0.674,1.63,0.674s1.187-0.225,1.63-0.674
			c0.444-0.45,0.667-1.024,0.667-1.722s-0.223-1.272-0.667-1.722c-0.443-0.45-0.987-0.674-1.63-0.674s-1.186,0.225-1.63,0.674
			c-0.443,0.45-0.666,1.024-0.666,1.722S69.336,11.272,69.779,11.722z"/>
		<path fill="#FFFFFF" stroke="#FFFFFF" stroke-width="0.2" stroke-miterlimit="10" d="M75.575,13V7h0.938l2.916,4.667h0.033
			l-0.033-1.156V7h0.771v6h-0.805l-3.051-4.894h-0.033l0.033,1.156V13H75.575z"/>
	</g>
	<path fill="#FFFFFF" d="M68.136,21.751c-2.353,0-4.269,1.789-4.269,4.254c0,2.448,1.916,4.252,4.269,4.252s4.27-1.804,4.27-4.252
		C72.405,23.541,70.488,21.751,68.136,21.751z M68.136,28.583c-1.288,0-2.4-1.063-2.4-2.577c0-1.531,1.112-2.578,2.4-2.578
		c1.289,0,2.4,1.047,2.4,2.578C70.536,27.519,69.425,28.583,68.136,28.583z M58.822,21.751c-2.353,0-4.27,1.789-4.27,4.254
		c0,2.448,1.917,4.252,4.27,4.252s4.27-1.804,4.27-4.252C63.092,23.541,61.175,21.751,58.822,21.751z M58.822,28.583
		c-1.288,0-2.4-1.063-2.4-2.577c0-1.531,1.112-2.578,2.4-2.578c1.289,0,2.4,1.047,2.4,2.578
		C61.223,27.519,60.111,28.583,58.822,28.583z M47.743,23.057v1.804h4.318c-0.129,1.016-0.467,1.756-0.982,2.271
		c-0.629,0.629-1.611,1.321-3.336,1.321c-2.658,0-4.736-2.143-4.736-4.801s2.078-4.801,4.736-4.801c1.435,0,2.481,0.564,3.255,1.289
		l1.273-1.273c-1.08-1.031-2.514-1.82-4.528-1.82c-3.641,0-6.701,2.964-6.701,6.605c0,3.641,3.061,6.604,6.701,6.604
		c1.966,0,3.448-0.645,4.608-1.852c1.191-1.193,1.562-2.868,1.562-4.222c0-0.419-0.032-0.806-0.097-1.127H47.743z M93.052,24.458
		c-0.354-0.951-1.434-2.707-3.641-2.707c-2.191,0-4.012,1.725-4.012,4.254c0,2.384,1.805,4.252,4.221,4.252
		c1.949,0,3.077-1.191,3.545-1.885l-1.45-0.967c-0.483,0.709-1.144,1.177-2.095,1.177c-0.95,0-1.627-0.435-2.062-1.289l5.687-2.353
		L93.052,24.458z M87.252,25.876c-0.048-1.645,1.273-2.481,2.224-2.481c0.741,0,1.369,0.37,1.579,0.901L87.252,25.876z M82.629,30
		h1.868V17.499h-1.868V30z M79.567,22.702h-0.064c-0.419-0.5-1.225-0.951-2.239-0.951c-2.127,0-4.076,1.869-4.076,4.27
		c0,2.385,1.949,4.236,4.076,4.236c1.015,0,1.82-0.451,2.239-0.966h0.064v0.612c0,1.627-0.87,2.497-2.271,2.497
		c-1.144,0-1.853-0.822-2.143-1.515l-1.627,0.677c0.467,1.127,1.707,2.514,3.77,2.514c2.191,0,4.044-1.289,4.044-4.431v-7.637
		h-1.772V22.702z M77.425,28.583c-1.289,0-2.368-1.079-2.368-2.562c0-1.498,1.079-2.594,2.368-2.594
		c1.272,0,2.271,1.096,2.271,2.594C79.696,27.503,78.697,28.583,77.425,28.583z M101.806,17.499h-4.471V30H99.2v-4.736h2.605
		c2.068,0,4.102-1.496,4.102-3.882C105.907,18.996,103.874,17.499,101.806,17.499z M101.854,23.524H99.2v-4.285h2.654
		c1.395,0,2.187,1.155,2.187,2.143C104.041,22.35,103.249,23.524,101.854,23.524z M113.386,21.729c-1.351,0-2.75,0.595-3.329,1.914
		l1.656,0.691c0.354-0.691,1.014-0.916,1.705-0.916c0.965,0,1.946,0.578,1.962,1.607v0.129c-0.338-0.192-1.062-0.482-1.946-0.482
		c-1.785,0-3.603,0.981-3.603,2.814c0,1.674,1.464,2.751,3.104,2.751c1.254,0,1.946-0.563,2.38-1.223h0.064v0.966h1.802v-4.793
		C117.182,22.967,115.524,21.729,113.386,21.729z M113.16,28.58c-0.61,0-1.463-0.305-1.463-1.061c0-0.965,1.062-1.336,1.979-1.336
		c0.819,0,1.206,0.178,1.704,0.418C115.235,27.759,114.238,28.58,113.16,28.58z M123.743,22.002l-2.139,5.419h-0.064l-2.22-5.419
		h-2.01l3.329,7.576l-1.898,4.214h1.946l5.131-11.79H123.743z M106.937,30h1.865V17.499h-1.865V30z"/>
	<g>
		
			<linearGradient id="SVGID_1_" gradientUnits="userSpaceOnUse" x1="21.8003" y1="37.4116" x2="5.0183" y2="20.6296" gradientTransform="matrix(1 0 0 -1 0 46.1201)">
			<stop  offset="0" style="stop-color:#00A0FF"/>
			<stop  offset="0.0066" style="stop-color:#00A1FF"/>
			<stop  offset="0.2601" style="stop-color:#00BEFF"/>
			<stop  offset="0.5122" style="stop-color:#00D2FF"/>
			<stop  offset="0.7604" style="stop-color:#00DFFF"/>
			<stop  offset="1" style="stop-color:#00E3FF"/>
		</linearGradient>
		<path fill="url(#SVGID_1_)" d="M10.436,7.538c-0.291,0.308-0.463,0.786-0.463,1.405v22.116c0,0.619,0.172,1.098,0.463,1.404
			l0.074,0.072l12.389-12.389v-0.146v-0.146L10.509,7.465L10.436,7.538z"/>
		
			<linearGradient id="SVGID_2_" gradientUnits="userSpaceOnUse" x1="33.834" y1="26.1196" x2="9.6358" y2="26.1196" gradientTransform="matrix(1 0 0 -1 0 46.1201)">
			<stop  offset="0" style="stop-color:#FFE000"/>
			<stop  offset="0.4087" style="stop-color:#FFBD00"/>
			<stop  offset="0.7754" style="stop-color:#FFA500"/>
			<stop  offset="1" style="stop-color:#FF9C00"/>
		</linearGradient>
		<path fill="url(#SVGID_2_)" d="M27.028,24.279l-4.129-4.132v-0.146v-0.146l4.13-4.13l0.093,0.053l4.893,2.78
			c1.397,0.794,1.397,2.093,0,2.888l-4.893,2.781L27.028,24.279z"/>
		
			<linearGradient id="SVGID_3_" gradientUnits="userSpaceOnUse" x1="24.8271" y1="23.8237" x2="2.0699" y2="1.0665" gradientTransform="matrix(1 0 0 -1 0 46.1201)">
			<stop  offset="0" style="stop-color:#FF3A44"/>
			<stop  offset="1" style="stop-color:#C31162"/>
		</linearGradient>
		<path fill="url(#SVGID_3_)" d="M27.122,24.225l-4.224-4.224L10.436,32.463c0.46,0.488,1.221,0.549,2.078,0.062L27.122,24.225"/>
		
			<linearGradient id="SVGID_4_" gradientUnits="userSpaceOnUse" x1="7.2979" y1="45.9448" x2="17.4602" y2="35.7825" gradientTransform="matrix(1 0 0 -1 0 46.1201)">
			<stop  offset="0" style="stop-color:#32A071"/>
			<stop  offset="0.0685" style="stop-color:#2DA771"/>
			<stop  offset="0.4762" style="stop-color:#15CF74"/>
			<stop  offset="0.8009" style="stop-color:#06E775"/>
			<stop  offset="1" style="stop-color:#00F076"/>
		</linearGradient>
		<path fill="url(#SVGID_4_)" d="M27.122,15.777l-14.608-8.3c-0.857-0.487-1.618-0.426-2.078,0.062l12.463,12.463L27.122,15.777z"/>
		<g>
			<path opacity="0.2" enable-background="new    " d="M27.029,24.132l-14.515,8.247c-0.812,0.461-1.538,0.43-2.004,0.011l0,0
				l-0.074,0.074l0,0l0.074,0.072l0-0.001c0.466,0.42,1.192,0.451,2.004-0.01l14.608-8.301L27.029,24.132z"/>
			<path opacity="0.12" enable-background="new    " d="M10.436,32.319c-0.291-0.309-0.463-0.786-0.463-1.405v0.146
				c0,0.619,0.172,1.098,0.463,1.405l0.074-0.074L10.436,32.319z"/>
		</g>
		<path opacity="0.12" enable-background="new    " d="M32.015,21.299l-4.986,2.833l0.093,0.093l4.893-2.78
			c0.698-0.397,1.048-0.92,1.048-1.443l0,0C33.004,20.475,32.648,20.938,32.015,21.299z"/>
		<path opacity="0.25" fill="#FFFFFF" enable-background="new    " d="M12.514,7.623l19.501,11.08
			c0.634,0.36,0.989,0.824,1.048,1.298l0,0c0.001-0.523-0.349-1.047-1.048-1.444L12.514,7.477c-1.398-0.794-2.541-0.134-2.541,1.466
			v0.146C9.973,7.489,11.116,6.829,12.514,7.623z"/>
	</g>
</g>
</svg>
